<?xml version="1.0" standalone="no"?><!DOCTYPE svg PUBLIC "-//W3C//DTD SVG 1.1//EN" "http://www.w3.org/Graphics/SVG/1.1/DTD/svg11.dtd"><svg t="1756284596709" class="icon" viewBox="0 0 1226 1024" version="1.1" xmlns="http://www.w3.org/2000/svg" p-id="5046" xmlns:xlink="http://www.w3.org/1999/xlink" width="239.453125" height="200"><path d="M701.398797 847.700935a506.640754 506.640754 0 0 1-90.678105 24.284307c-85.395642 14.59562-170.240506 11.616411-253.958779-11.040597-6.43409-1.72744-11.265916 0.150212-16.573414 2.828996-46.190255 23.207787-92.480651 46.265361-138.545729 69.62336-14.770867 7.510611-29.015992 8.211601-42.334809-1.72744-13.9447-10.439749-17.825182-24.634803-15.146398-42.10949 5.983453-39.08021 10.53989-78.360704 15.897459-117.541056 0.926309-6.834656-3.930553-9.638617-7.735928-13.24371-40.707509-38.729715-77.234112-80.914311-103.971886-130.634553C-36.143161 470.918638-8.25376 286.282794 119.15123 157.025186c75.106106-76.232697 166.10967-123.474438 270.557228-144.404006C524.724201-14.467088 654.457481 1.405335 776.554974 66.472258c94.508516 50.346126 166.585342 122.948695 209.395822 222.264002 24.309343 56.37965 34.198313 115.513191 30.042443 179.052956-13.24371-10.514855-26.136925-19.377375-42.209632-21.07978a76.282768 76.282768 0 0 0-47.141599 8.837485 303.804198 303.804198 0 0 0-12.667896-100.742323c-24.81005-80.688993-74.930858-142.376141-143.928334-189.342492-72.202003-49.119393-152.715748-73.378665-239.538407-77.058865-108.953924-4.631543-209.220575 21.956018-297.370108 87.123083-82.616716 61.211476-134.515035 141.925504-142.175858 246.398097-5.933382 80.889276 19.878083 152.715748 69.548254 216.305585a353.399263 353.399263 0 0 0 69.62336 67.996061c16.948945 12.517684 22.356584 27.914436 16.748662 48.067907-6.509196 23.257857-12.517684 46.665927-18.501138 70.099032-1.101556 4.306083-3.279633 9.338192 0.851203 12.943286 4.731685 4.155871 8.537061-0.726026 12.192224-2.828997 27.739188-16.122777 55.578518-32.120378 82.967212-48.818968 16.673555-10.189395 33.447252-12.943286 52.574274-7.510611a480.954466 480.954466 0 0 0 266.301215-1.001415c8.436919-2.503537 12.067048-3.254598 12.517685 8.136495 1.051485 29.391523 18.075536 48.793933 45.614441 62.388139z" fill="#0081EF" p-id="5047"></path><path d="M756.151148 824.26783c-36.70185-0.425601-66.143444-28.590391-69.673431-66.644152-3.004244-32.420802 22.531832-66.744293 56.154332-72.327179a221.588047 221.588047 0 0 0 127.505132-67.595496c6.208771-6.48416 13.168604-7.510611 20.278649-3.805376s9.813864 10.840315 8.061388 19.152057a17.925324 17.925324 0 0 1-6.233806 9.087839 222.539391 222.539391 0 0 0-66.443869 127.054496c-5.257427 31.369317-36.927169 55.478377-69.648395 55.077811z" fill="#FECB00" p-id="5048"></path><path d="M1226.791042 753.267524c0 35.750506-24.734944 65.56763-58.532692 70.724916-47.967766 7.310328-88.049391 29.391523-121.772033 63.715014-4.806791 5.007074-9.613582 9.613582-17.02405 8.662237a16.022636 16.022636 0 0 1-14.044842-10.86535c-2.503537-7.260257 0-13.118533 5.007074-18.175678a265.374907 265.374907 0 0 0 33.146828-39.030139 215.078851 215.078851 0 0 0 33.246969-82.86707c5.582887-32.295625 28.440179-55.72873 58.507657-60.660698 30.568185-5.007074 59.133541 9.763794 74.780645 38.554467a58.983328 58.983328 0 0 1 6.684444 29.942301z" fill="#0082EF" p-id="5049"></path><path d="M886.435206 554.536769c0.300424-36.201143 30.042442-68.121238 63.815155-70.449528 37.67823-2.503537 70.249244 21.855877 76.032414 57.581348 7.861106 48.518544 29.867195 89.451372 65.091958 123.574579 9.488405 9.213016 10.640032 18.32589 3.304669 25.961678s-16.373131 7.510611-25.986713-2.353325c-34.673985-35.049516-75.706955-57.456171-124.751241-65.542595-21.07978-3.479916-37.102416-16.047671-48.042873-34.699021-6.609337-11.065633-8.386848-23.307928-9.463369-34.073136z" fill="#2DBB00" p-id="5050"></path><path d="M1026.63327 953.300119c0 35.775542-26.662668 67.094788-60.084884 70.27428-40.557297 3.905517-72.978099-19.327305-79.562402-59.008364-8.011318-48.318261-30.21769-88.575134-65.091958-122.247705-6.43409-6.233807-9.162945-13.118533-5.582887-21.255028 2.954173-6.709479 9.112874-9.313157 16.423202-9.18798 5.007074 0 8.512025 3.104386 11.691517 6.43409 34.849233 36.501567 77.384324 57.906808 126.979389 66.969611 32.696191 5.983453 55.152917 35.274834 55.228023 68.021096z" fill="#F96500" p-id="5051"></path></svg>